<?xml version="1.0" encoding="UTF-8" standalone="no"?>
<!-- Created with Inkscape (http://www.inkscape.org/) -->

<svg
     version="1.1"
     id="svg1"
     width="510.0668"
     height="616.69165"
     viewBox="0 0 510.0668 616.69165"
     xmlns="http://www.w3.org/2000/svg"
     xmlns:svg="http://www.w3.org/2000/svg">
    <defs
         id="defs1" />
    <path
         d="m 261.42507,0.01712268 c -15.33819,-0.17148 -29.78708,0.94652 -45.33398,3.33203002 -28.63781,4.39417 -38.15877,5.33674 -61,6.03711 -17.23922,0.5286 -25.13779,0.32371 -36.5,-0.94531 -14.74988,-1.64738 -21.888248,-1.2455 -27.277338,1.5332 -11.92694,6.1497303 -16.79106,18.6339703 -13.68164,35.1132803 l 1.33203,7.0625 -2.5625,2.20508 c -2.34219,2.01467 -3.94777,2.2551 -18.54688,2.76172 -12.70979,0.44106 -16.88183,0.94874 -20.37305,2.47851 l -4.39062,1.92188 9,0.65429 c 4.95,0.35948 13.95,1.59984 20,2.75586 6.05,1.15602 13.3625,2.34553 16.25,2.64453 l 5.25,0.54493 v -21.22266 c 0,-23.96905 0.53544,-26.32839 6.85742,-30.25977 l 3.64258,-2.26562 H 289.59109 c 190.6586,0 195.57863,0.0475 198.65625,1.91016 1.73566,1.05046 4.09816,3.5873 5.25,5.63671 2.04186,3.63302 2.09375,4.88358 2.09375,50.02344 0,44.704587 -0.0714,46.445547 -2.06055,50.554687 -1.4957,3.08971 -3.22474,4.81875 -6.31445,6.31445 -4.25219,2.05845 -4.41322,2.0606 -198.19141,2.0586 -182.63826,-10e-4 -194.136688,-0.1034 -197.414058,-1.75 -1.91403,-0.96165 -4.50153,-3.27766 -5.75,-5.14649 -2.1751,-3.25594 -2.27084,-4.25857 -2.28516,-23.999997 l -0.01367,-20.60156 -3.39453,4 c -6.35281,7.48566 -7.11612,15.22015 -2.69726,27.328117 7.69535,21.08574 17.75272,28.19295 39.845698,28.15235 5.92624,-0.0109 18.20039,-0.90959 27.27539,-1.9961 21.26311,-2.54566 36.94239,-2.48389 60.5,0.23438 17.06242,1.9688 24.14989,2.19603 69.5,2.23633 49.71328,0.0441 50.57362,0.0793 55.21289,2.22265 3.37938,1.56127 4.90005,2.92608 5.37695,4.82618 1.59772,6.36581 -4.85872,10.70039 -18.58984,12.47851 -4.675,0.60539 -13.675,2.03228 -20,3.17188 -15.52027,2.79635 -26.15619,2.1298 -43,-2.69922 -17.28968,-4.95684 -27.17316,-5.47552 -45,-2.35547 -16.46803,2.88221 -27.53659,2.87893 -55.88281,-0.0176 -22.10924,-2.25917 -40.76333,-2.66627 -49.15821,-1.07422 -17.266408,3.27451 -27.213348,14.26561 -28.582028,31.58008 -0.86979,11.00328 -2.35512,13.76582 -9.20508,17.11719 -5.53233,2.70671 -6.01114,2.75904 -29.64843,3.31836 -22.00004,0.52058 -24.36906,0.74957 -28.1210998,2.71484 -6.62425,3.4697 -9.27951,9.29072 -7.40820004,16.24024 3.71470004,13.79534 32.57874984,20.90456 64.74608984,15.94726 8.06379,-1.24271 12.49482,0.40384 14.94922,5.55078 1.51802,3.18331 1.56234,4.22808 0.39258,9.30469 -0.72479,3.1455 -1.53556,8.682 -1.80273,12.30469 -0.58951,7.99336 1.48262,12.84217 7.80273,18.25195 8.53592,7.30643 18.763248,8.35406 39.031248,4 9.81395,-2.10827 15.19142,-2.67114 25.88672,-2.71484 12.25345,-0.0501 14.63901,0.25123 25.82812,3.26953 l 12.32618,3.32617 8.89257,-1.72852 c 12.94544,-2.51446 21.73832,-0.66535 27.81836,5.84961 3.44614,3.69265 3.98883,10.32561 1.13868,13.9375 -4.0203,5.09477 -9.3847,7.01197 -21.00391,7.50782 -12.3689,0.52784 -48.83338,-1.23993 -68,-3.29688 -29.65024,-3.18205 -42.637168,-0.85111 -52.999998,9.51172 -5.30386,5.30386 -7.74109,10.44581 -9.08789,19.16797 -1.42083,9.20159 -2.92389,12.13511 -7.26953,14.19726 -4.11253,1.95152 -16.07381,2.19329 -23.51953,0.47461 -3.8628,-0.89168 -5.36418,-0.8858 -6.4668,0.0293 -1.08318,0.89896 -1.93798,3.20521 -2.01758,4.66602 1.60193,0.64868 2.33311,1.27734 0.5625,1.27734 -0.44123,0 -0.60331,-0.5283 -0.5625,-1.27734 -1.77139,-0.71731 -4.60729,-1.4595 -6.29687,-1.41211 -5.21358,0.14624 -6.48739,2.29005 -8.13672,3.44531 -2.66848,1.86908 -1.98197,3.66427 1.10547,2.89062 1.20379,-0.30165 4.1578,0.14647 6.56445,0.9961 5.60188,1.97761 12.85974,1.97251 17.61328,-0.0137 3.95882,-1.6541 26.2483,-2.31626 32.41016,-0.96289 l 3.10156,0.67973 v -17.84375 c 0,-20.14504 0.79548,-23.12528 7.0625,-26.48633 3.26651,-1.75187 11.479488,-1.82812 199.023438,-1.82812 h 195.61914 l 3.39648,2.26953 c 6.99463,4.6727 6.89449,3.85994 6.89649,56.01172 0.002,51.64802 0.0411,51.29831 -6.2461,56.09375 l -3.46093,2.64062 -197.06446,-0.25781 -197.066398,-0.25781 -2.67383,-2.5 c -5.16225,-4.8236 -5.48633,-6.42792 -5.48633,-27.2168 v -19.31445 l -11.25,0.34375 c -6.1875,0.1897 -18.9,0.6559 -28.25,1.03516 l -17,0.68945 3.45703,2.19531 c 3.08424,1.95959 4.64518,2.17563 14.5,1.99805 9.61977,-0.17334 11.55871,0.0773 15.04297,1.94726 8.61696,4.62471 13.71994,12.76164 15.38672,24.53125 1.87248,13.22213 9.27365,21.87157 22.13672,25.875 18.138718,5.64541 64.324378,6.86004 114.476558,3.01172 30.61976,-2.34955 32.26479,-2.35591 75.5,-0.29492 17.36051,0.82756 21.19024,2.04298 23.46094,7.44336 2.93115,6.97117 -2.85468,12.68707 -15.53711,15.34961 -8.6375,1.81335 -19.16729,1.31551 -36.42383,-1.7207 -31.87412,-5.6081 -42.62645,-6.00985 -63.59961,-2.38086 -16.6046,2.87309 -26.66473,3.10767 -43.4375,1.01562 -15.63986,-1.95074 -37.02201,-1.93626 -45.36914,0.0312 -13.618878,3.2102 -22.779758,10.51725 -26.677728,21.28125 -5.01494,13.84844 -8.33499,18.56802 -15.72071,22.33594 -5.83214,2.97533 -12.41836,3.37715 -20.85937,1.27344 -4.03528,-1.00569 -9.84781,-1.78322 -12.91797,-1.72852 -5.80271,0.10343 -14.82854,3.28032 -17.10352,6.02149 -1.10273,1.32871 0.14872,1.45359 10.71875,1.0625 11.59893,-0.42917 12.27436,-0.33753 21.9668,3.00781 9.17967,3.16835 10.6286,3.39961 17.67187,2.8125 4.21998,-0.35176 10.29499,-1.43747 13.5,-2.41211 l 5.82813,-1.77144 0.5,-17.46093 c 0.54195,-18.92604 1.03838,-20.71596 6.82031,-24.64063 2.56934,-1.74398 10.815428,-1.82031 198.855468,-1.82031 h 196.17774 l 2.76171,2.0625 c 1.51886,1.13398 3.68829,3.30394 4.82227,4.82227 2.00657,2.68666 2.06967,4.05021 2.32617,50.9375 0.29427,53.78914 0.42293,52.67508 -6.66211,57.4082 l -3.39648,2.26953 H 289.02078 92.745392 l -3.11328,-2.61914 c -5.81055,-4.88925 -6.04102,-6.08069 -6.04102,-31.24024 v -22.95703 l -6.11914,1.85352 c -5.07166,1.53557 -8.11215,1.75174 -17.75,1.26758 -9.74801,-0.48969 -13.16818,-0.23587 -21.13086,1.5664 -5.99909,1.35783 -13.6651,2.23753 -20.80273,2.38868 l -11.3027398,0.24023 2.41797,2.08594 c 4.2110098,3.63274 17.3134698,5.53504 36.4081998,5.28515 14.00532,-0.18329 17.4384,0.0647 20.76563,1.50196 8.19209,3.53876 11.31351,8.35839 12.66797,19.55859 1.77655,14.69047 8.41026,23.00088 21.617178,27.08008 9.86306,3.04639 18.00519,3.38619 37.22852,1.55273 19.27961,-1.83884 19.67141,-1.81246 55.5,3.88867 33.29846,5.29854 56.10327,5.43566 89.5,0.53516 7.425,-1.08952 18.45,-2.70677 24.5,-3.59375 16.76765,-2.45828 30.88678,-1.54465 53,3.43359 9.9,2.22876 19.35,4.23763 21,4.4629 6.03954,0.82455 18.16033,0.6679 24.20117,-0.3125 3.41037,-0.55348 11.96037,-2.63552 19,-4.62696 12.42458,-3.51479 13.47224,-3.64289 35.79883,-4.35937 25.61091,-0.82188 30.2185,-1.77711 35.88086,-7.43946 4.21215,-4.21216 5.61914,-9.33022 5.61914,-20.43554 0,-5.87305 0.85991,-13.17549 2.40039,-20.38477 3.61131,-16.90052 3.89715,-21.75585 2.1582,-36.73242 -0.86213,-7.425 -1.81645,-15.975 -2.11914,-19 -0.87485,-8.74306 -3.21736,-14.53596 -8.05273,-19.91406 -8.41831,-9.36318 -19.51422,-11.01022 -49.67969,-7.37305 -20.2714,2.44415 -69.99699,2.44873 -80.68359,0.008 -18.17091,-4.15074 -28.62345,-14.03877 -24.1836,-22.8789 1.32186,-2.63193 2.66348,-3.58428 6.58985,-4.68164 4.47756,-1.25142 6.5711,-1.13228 22.88672,1.30468 27.9252,4.17099 32.79216,4.27423 49.18945,1.03711 15.43984,-3.04811 27.75481,-3.52927 38.49414,-1.5039 9.83114,1.85408 23.57682,1.71 29.53125,-0.3086 9.86332,-3.34374 16.44553,-11.62854 16.49023,-20.75586 0.0119,-2.43886 -1.42575,-10.19272 -3.19531,-17.23047 -3.06559,-12.19222 -3.15953,-13.12842 -2.00195,-19.8789 0.66819,-3.8966 3.00855,-11.37938 5.20117,-16.62695 2.19262,-5.24756 4.426,-12.26781 4.96289,-15.60157 2.56411,-15.92169 -5.19807,-32.52807 -18.34961,-39.25586 -7.5612,-3.86801 -14.44331,-4.56026 -28.2207,-2.84179 -17.44495,2.17594 -23.66361,1.89371 -42.80078,-1.9336 -39.08362,-7.81648 -61.30206,-8.7334 -98.61719,-4.07422 -31.01171,3.87213 -42.7749,2.95253 -47.43945,-3.70703 -3.72241,-5.31449 0.28101,-11.47123 9.17773,-14.11328 13.04978,-3.87536 32.76402,-3.06352 67.5293,2.7793 28.66502,4.81758 37.82003,5.25771 55.08203,2.64648 15.98286,-2.41774 25.7563,-2.60155 48.42773,-0.91015 25.17622,1.87826 36.57987,-0.59828 45.36719,-9.84961 6.47401,-6.81588 8.2077,-11.4946 8.64649,-23.33594 0.34562,-9.32718 -0.0201,-12.28716 -3.26563,-26.5 -4.41768,-19.3462 -5.20562,-28.90655 -3.5625,-43.17188 1.54217,-13.38884 0.62923,-17.64656 -5.11914,-23.88281 -7.47644,-8.11098 -18.94643,-10.65129 -35.67969,-7.90625 -10.08126,1.65383 -10.99203,1.65516 -16.66406,0.041 -3.3,-0.9391 -8.475,-2.41101 -11.5,-3.27149 -4.80268,-1.36616 -7.08481,-1.40544 -18,-0.30078 -9.70186,0.98188 -13.72534,1.00383 -17.97656,0.0918 -11.92295,-2.55786 -18.8461,-9.67303 -15.57227,-16.00391 2.00266,-3.87273 6.06237,-5.09461 16.94727,-5.09961 5.00543,-0.002 15.85156,-0.89385 24.10156,-1.98047 19.75956,-2.60255 33.85853,-2.5873 46.58008,0.0488 9.32631,1.93261 10.30487,1.96609 15.31445,0.50977 6.03153,-1.75342 12.21941,-7.1821 15.19727,-13.33203 2.49862,-5.1602 2.89581,-15.15031 1,-25.103517 -1.95796,-10.27947 -1.98204,-17.67306 -0.10352,-30.63867 0.79687,-5.5 1.46307,-13.28631 1.48047,-17.30273 0.0174,-4.01643 0.75709,-10.49473 1.64453,-14.39649 2.72072,-11.96212 0.90834,-18.43889 -6.58789,-23.54101 -6.37463,-4.3387403 -9.08713,-4.6559103 -41.52539,-4.8554703 -23.61108,-0.14525 -33.02599,-0.5719 -39.5,-1.79493 -10.87076,-2.05361 -28.41015,-2.05367 -43.04102,0 -13.83786,1.94236 -43.362,1.42735 -60.45898,-1.05468 -19.10032,-2.77287 -35.32782,-4.23477002 -50.66602,-4.40625002 z m 27.66602,168.87108732 195,0.0137 3.89648,2.23242 c 7.77846,4.45947 7.6064,3.17248 7.58789,56.71875 -0.0164,47.32767 -0.0253,47.53162 -2.25,51.41211 -1.22843,2.14274 -3.80232,4.73024 -5.71875,5.75 -3.35875,1.78726 -10.51525,1.85361 -198.5,1.84961 -192.830858,-0.004 -195.052758,-0.0254 -198.275388,-1.99023 -1.79253,-1.09292 -4.15317,-3.45356 -5.24609,-5.24609 -1.82876,-2.99941 -1.98723,-5.07279 -1.99023,-26.00977 -0.004,-25.71792 0.54253,-24.28999 -8.12891,-21.17969 -2.40665,0.86323 -10,2.21758 -16.875,3.01172 -6.875,0.79413 -14.75,1.86124 -17.5,2.37109 -2.75,0.50987 -9.12853,0.95353 -14.17383,0.98633 -8.41163,0.0547 -9.42295,-0.15128 -12.19336,-2.48242 -1.6617,-1.39823 -3.99514,-4.11415 -5.1835898,-6.03711 -2.53935,-4.10876 -1.85817,-6.7156 3.2206998,-12.32812 3.03923,-3.35858 3.22877,-3.41498 13.02539,-3.88672 23.25335,-1.11973 15.01648,4.88085 44.18946,3.31836 l 13.61523,-0.72855 0.004,-18.64648 c 0.004,-20.82844 0.61267,-23.11582 7.23632,-27.1543 3.22287,-1.96541 5.42966,-1.98721 198.259768,-1.97461 z"
         style="display:inline;fill:#8c4d15;fill-opacity:1"
         id="path10" />
</svg>
