<?xml version="1.0" encoding="UTF-8" standalone="no"?>
<!-- Created with Inkscape (http://www.inkscape.org/) -->

<svg
     version="1.1"
     id="svg1"
     width="2048"
     height="512"
     viewBox="0 0 2048 512"
     xmlns="http://www.w3.org/2000/svg"
     xmlns:svg="http://www.w3.org/2000/svg">
    <defs
         id="defs1" />
    <path
         d="m 2011.0254,281.61523 c -4.5024,0.0204 -9.2671,0.78319 -13.168,2.28125 -6.635,2.54808 -13.8475,9.64781 -17.1543,16.88672 -2.9653,6.49138 -3.1569,22.30649 -0.3242,26.76172 4.5901,7.21941 11.1908,12.00944 18.6211,13.51563 15.285,3.09837 28.2228,-2.90388 34.3184,-15.92188 2.5967,-5.54561 3.1746,-8.15253 3.5117,-15.83203 0.3485,-7.93564 0.1035,-9.81301 -1.791,-13.72656 -2.4264,-5.01217 -6.1893,-8.58655 -12.4219,-11.79688 -2.8489,-1.46741 -7.0894,-2.18841 -11.5918,-2.16797 z m -5.4102,10.35743 c 1.3905,0.0659 2.5656,0.5403 3.3848,1.52734 1.6793,2.02339 0.2715,3.61972 -7.9961,9.06641 -3.5938,2.36758 -7.6185,5.45882 -8.9434,6.86914 -2.8511,3.03485 -4.7031,3.26936 -5.5195,0.69726 -2.2115,-6.96814 11.566,-18.51629 19.0742,-18.16015 z"
         style="display:inline;fill:#8e4c13;fill-opacity:1"
         id="path9" />
    <path
         d="m 2012.1146,289.20191 c -2.579,-0.0953 -6.1657,0.40196 -8.6961,1.39287 -11.2007,4.38608 -21.7706,17.32467 -17.2207,21.07943 1.6942,1.39814 3.3906,0.62076 7.2155,-3.30702 1.8435,-1.89292 7.2672,-6.04503 12.0534,-9.22715 9.107,-6.05482 10.8339,-7.66736 9.7566,-9.10582 -0.3779,-0.50453 -1.5612,-0.77516 -3.1087,-0.83231 z"
         style="display:inline;fill:#ffdd55;stroke-width:0.963257"
         id="path10-4" />
    <path
         d="m 386.19336,389.66602 c 8.85592,-0.14236 11.01024,0.15702 15.30664,2.13281 5.98476,2.75221 11.92351,8.25372 14.68359,13.60351 2.38386,4.6206 2.88354,15.79371 0.9961,22.27344 -2.84749,9.77562 -16.18852,22.61549 -27.08985,26.07227 -5.85376,1.85621 -16.43018,2.93004 -21.58984,2.19336 -4.86964,-0.69528 -11.24941,-3.90457 -15.93164,-8.01563 -9.00407,-7.90567 -11.78784,-22.88828 -6.32031,-34.02148 3.79187,-7.72115 12.82414,-16.08662 22.15039,-20.51563 6.95146,-3.30124 8.22813,-3.56887 17.79492,-3.72265 z"
         style="fill:#8e4c13;fill-opacity:1"
         id="path7" />
    <path
         d="m 377.5625,400.04102 c -2.43227,-0.10885 -5.81475,0.45936 -8.20117,1.59179 -10.56298,5.01246 -20.53123,19.79886 -16.24024,24.08985 1.59782,1.59782 3.19746,0.70942 6.80469,-3.7793 1.73845,-2.16327 6.85341,-6.90835 11.36719,-10.54492 8.58865,-6.91953 10.21715,-8.76235 9.20117,-10.40625 -0.35635,-0.57658 -1.47228,-0.88587 -2.93164,-0.95117 z"
         style="display:inline;fill:#ffdd55"
         id="path10" />
    <path
         d="m 648.7793,69.677734 c -29.01755,-0.713746 -58.12846,1.45143 -91.7793,6.386719 -16.64233,2.440792 -52.48061,9.976404 -77.5,16.294922 -29.83262,7.534073 -33.42509,8.396375 -48.5,11.652345 -7.975,1.72249 -17.425,3.77541 -21,4.56055 -3.575,0.78514 -15.95,1.92169 -27.5,2.52734 -11.55,0.60564 -21.9,1.16985 -23,1.25195 -1.1,0.0821 -8.525,-0.21363 -16.5,-0.65625 -19.3611,-1.07455 -42.09032,-5.7507 -83.89844,-17.261716 C 239.47448,89.029675 207.32802,83.225443 193,82.498047 186.125,82.149022 179.1579,81.691771 177.51758,81.482422 172.56674,80.850563 135.067,83.881228 126.5,85.605469 118.1994,87.276095 95.31295,94.740083 84,99.466797 53.731482,112.11342 31.989789,131.25289 18.976562,156.70703 13.748904,166.93243 11.956213,174.13364 11.3125,187.5 c -0.629749,13.0764 1.177743,21.74337 7.763672,37.23242 8.951105,21.05157 10.27676,28.61695 7.583984,43.26758 -4.769749,25.95085 -4.008941,42.11309 2.886719,61.29687 11.197477,31.15147 30.318851,48.04292 70.386719,62.17969 23.243426,8.20076 56.470866,10.33979 93.066406,5.99024 4.87943,-0.57994 39.45559,-6.75245 50,-8.92578 9.48433,-1.95484 49.71257,-12.0597 62.5,-15.69922 44.93467,-12.78917 72.77907,-19.71538 85.5,-21.26758 30.93378,-3.77452 50.96721,-4.57448 66.17773,-2.64453 4.0273,0.51099 11.61528,1.16168 16.86133,1.44726 11.1295,0.60587 14.22492,1.23222 34.96094,7.07617 8.525,2.40259 18.34627,5.08367 21.82617,5.95704 3.4799,0.87337 9.3299,2.73268 13,4.13281 13.68961,5.22254 16.94443,6.43368 28.17383,10.48633 11.94984,4.31264 18.30388,6.78402 38.5,14.96679 12.07771,4.89348 40.72439,13.9486 56.5,17.85938 10.1886,2.52575 46.14597,8.75918 61.5,10.66211 8.13771,1.00857 20.88792,1.26132 49,0.9707 37.40754,-0.38671 50.5398,-1.25965 74.5,-4.95312 35.74324,-5.50984 40.568,-6.47325 55,-10.97461 4.125,-1.28659 11.1,-3.33023 15.5,-4.54102 4.4,-1.21079 13.85,-4.15436 21,-6.54297 7.15,-2.38862 16.6,-5.31517 21,-6.50195 4.4,-1.18677 14.525,-4.12325 22.5,-6.52734 16.9618,-5.11318 59.3677,-13.90904 74.4707,-15.44532 22.7276,-2.31185 51.2948,-1.06614 66.5293,2.90039 4.125,1.074 14.7531,3.56275 23.6172,5.53125 8.8641,1.96849 22.3641,5.5479 30,7.95313 7.6359,2.40524 23.5578,6.69652 35.3828,9.53711 11.825,2.84059 25.912,6.2965 31.3047,7.67969 22.3202,5.725 71.2237,8.76284 96.6953,6.00585 7.975,-0.86319 16.75,-2.03193 19.5,-2.59765 2.75,-0.56572 9.725,-1.8983 15.5,-2.96094 5.775,-1.06264 13.65,-2.82115 17.5,-3.9082 75.2323,-21.24188 78.6896,-21.98865 103.043,-22.21094 17.4722,-0.15948 27.5147,1.11991 43.7363,5.56641 7.0284,1.92654 13.3502,3.50195 14.0488,3.50195 1.6829,0 25.9403,7.92462 36.6719,11.98047 8.2978,3.13601 32.4943,10.41973 46.5,13.99805 19.9216,5.08977 50.3178,9.81584 71.6641,11.14062 30.9594,1.92138 70.6091,-3.19899 102.8359,-13.2793 32.3243,-10.11082 40.093,-13.17443 60,-23.65625 23.3769,-12.30884 38.649,-24.5508 50.75,-40.68359 3.7129,-4.95 6.9778,-9.225 7.2559,-9.5 4.841,-4.7865 14.1371,-22.32446 17.4921,-33 3.5255,-11.21782 3.4377,-10.69388 4.1211,-24.5 0.4946,-9.9923 0.2357,-13.72426 -1.5429,-22.30273 -2.8125,-13.56491 -4.4087,-18.09275 -9.8028,-27.81446 -6.4367,-11.60087 -10.6976,-16.9277 -29.2734,-36.58789 -10.3032,-10.90467 -18.9971,-21.18703 -23.1484,-27.3789 -3.6564,-5.45374 -7.8135,-11.17106 -9.2383,-12.70508 -1.4248,-1.53401 -5.086,-5.87848 -8.1367,-9.6543 -5.9692,-7.38801 -19.285,-19.21609 -28.9766,-25.74023 -8.8822,-5.9793 -15.6771,-9.16596 -26.9199,-12.6211 -9.4018,-2.889356 -11.122,-3.098561 -25.5801,-3.121091 -16.3556,-0.02549 -15.3836,-0.189148 -43.6836,7.380861 -3.9506,1.05674 -14.0756,2.906 -22.5,4.11133 -12.8557,1.83932 -18.0483,2.10172 -32.3164,1.63281 -17.6825,-0.58112 -24.5478,-1.50012 -35.5,-4.75195 -18.9774,-5.6346 -30.0171,-8.83804 -34.5,-10.011723 -2.75,-0.719987 -7.7,-2.371777 -11,-3.671875 -8.412,-3.314088 -30.7706,-8.962774 -45,-11.369141 -15.5476,-2.629297 -43.5258,-3.573507 -58.6504,-1.978515 -29.5955,3.121041 -62.5524,10.022722 -83.4219,17.470703 -11.8741,4.237671 -33.347,10.411891 -47.4277,13.636721 -11.8987,2.7251 -16.5175,3.22442 -38.9434,4.20508 -19.2522,0.84184 -27.1056,0.82691 -32.2695,-0.0586 -3.7535,-0.64366 -8.9543,-1.17087 -11.5566,-1.17187 -6.6602,-0.003 -37.7889,-5.35371 -49.7305,-8.54883 -5.5,-1.4716 -14.5,-3.67853 -20,-4.9043 -5.5,-1.225765 -17.2,-4.144738 -26,-6.486326 -15.9231,-4.236963 -25.2234,-6.141893 -50,-10.244141 -17.9196,-2.966939 -61.2585,-3.241563 -78,-0.494141 -16.9677,2.784546 -40.1147,7.578688 -49.3223,10.216797 -17.21,4.930873 -57.18479,12.327801 -73.1777,13.541021 -27.40698,2.07905 -73.61174,0.23734 -103.14648,-4.11133 C 834.69337,101.17635 805.35238,95.112992 791.5,91.527344 784.35,89.676588 773.775,87.230999 768,86.09375 762.225,84.956501 749.625,82.469939 740,80.566406 706.72105,73.984841 677.79685,70.391481 648.7793,69.677734 Z m -22.03516,11.466797 c 20.50815,-0.22927 38.93514,0.495266 44.75586,2.291016 2.75,0.848403 7.13363,1.546734 9.74023,1.552734 2.6066,0.006 7.1066,0.911996 10,2.011719 2.8934,1.099722 7.37627,1.999722 9.96289,2 4.77506,5.12e-4 9.79688,1.625191 9.79688,3.169922 0,0.466874 -5.9625,0.623224 -13.25,0.347656 C 656.41205,90.954434 645.84531,90.865954 627.52148,91.927734 616.51016,92.565789 601.875,93.726727 595,94.507812 c -6.875,0.781085 -18.8,2.123616 -26.5,2.984375 -7.7,0.86076 -20.75,2.636303 -29,3.945313 -8.25,1.30902 -17.25,2.67898 -20,3.04297 -5.13169,0.67923 -26.59587,5.23258 -50.5,10.71484 -7.425,1.70288 -18.45,4.1505 -24.5,5.4375 -15.1019,3.21257 -25.23933,2.98911 -23.07813,-0.50781 1.00467,-1.62558 12.08914,-4.6706 29.57813,-8.12695 8.525,-1.6848 18.65,-3.93061 22.5,-4.99024 3.85,-1.05962 16.78883,-4.40532 28.75195,-7.433591 11.96313,-3.028278 22.53813,-5.924007 23.5,-6.435547 1.49339,-0.794206 10.66815,-3.194978 17.86133,-4.673828 2.23154,-0.458784 9.43973,-1.541404 25.88672,-3.888672 14.14668,-2.018975 36.73599,-3.20237 57.24414,-3.431641 z M 1113,92.503906 c 23.704,-0.0036 29.3414,0.27077 33.5,1.632813 2.75,0.900693 8.6,2.636151 13,3.855468 4.4,1.219317 16.1,4.600913 26,7.515623 9.9,2.9147 22.275,6.28214 27.5,7.48242 5.225,1.20027 15.8345,3.69077 23.5762,5.53516 25.9563,6.18378 64.1248,10.48756 92.6308,10.44336 23.943,-0.0371 33.623,-1.43418 56.793,-8.19531 8.525,-2.48764 22.25,-6.15428 30.5,-8.14844 8.25,-1.99417 19.0075,-4.73657 23.9063,-6.09375 4.8986,-1.35718 11.6487,-2.75316 15,-3.10156 5.6111,-0.58335 5.9319,-0.51345 4.041,0.88672 -1.1293,0.83625 -8.1043,3.52229 -15.5,5.96875 -7.3957,2.44646 -19.5223,6.93997 -26.9473,9.98437 -20.2358,8.2971 -31.9541,10.98967 -55.1465,12.66992 -16.0898,1.16572 -49.4099,1.17653 -65.8535,0.0215 -13.1431,-0.92319 -31.6044,-3.412 -44,-5.93164 -5.225,-1.06207 -13.325,-2.67519 -18,-3.58399 -4.675,-0.90881 -14.8,-3.36262 -22.5,-5.45312 -15.3914,-4.17869 -27.5515,-6.57839 -52.5,-10.35742 -23.7607,-3.59911 -35.1596,-4.58129 -65.2793,-5.63282 -14.7288,-0.5142 -27.5538,-1.37377 -28.5,-1.9082 -1.4674,-0.828862 -1.1681,-1.203604 2.0352,-2.548828 10.5266,-4.420659 16.1189,-5.036516 45.7441,-5.041016 z m -966.39453,4.75586 c 2.14933,0.170607 3.45138,0.569598 3.49609,1.226562 0.0723,1.06235 -1.13938,1.498784 -29.1875,10.537112 -29.492642,9.50381 -45.482995,18.28352 -62.531248,34.33203 -9.851769,9.27405 -16.219703,17.85202 -24.421875,32.89453 -2.923989,5.3625 -5.612323,9.75 -5.972656,9.75 -5.091588,0 -0.599297,-19.15708 7.804688,-33.28516 5.91965,-9.95161 19.929526,-24.28108 28.955078,-29.61328 10.099179,-5.96648 41.632313,-19.66399 50.751953,-22.04687 10.589,-2.766821 24.65747,-4.306745 31.10547,-3.794924 z M 1776.4766,109.42578 c 7.1384,-0.0552 12.5234,1.3567 12.5234,3.67188 0,2.39465 -8.9786,4.71052 -36.3809,9.38672 -11.7239,2.00069 -18.1668,1.69686 -17.3515,-0.81836 0.9293,-2.86671 21.4365,-9.98864 33.6211,-11.67579 2.6348,-0.36483 5.2084,-0.54605 7.5879,-0.56445 z"
         id="path2"
         style="display:inline;fill:#8e4c13;fill-opacity:1" />
    <path
         d="m 1776.4766,109.42578 c -2.3795,0.0184 -4.9531,0.19962 -7.5879,0.56445 -12.1846,1.68715 -32.6918,8.80908 -33.6211,11.67579 -0.8153,2.51522 5.6276,2.81905 17.3515,0.81836 27.4023,-4.6762 36.3809,-6.99207 36.3809,-9.38672 0,-2.31518 -5.385,-3.72708 -12.5234,-3.67188 z"
         style="fill:#ffdd55"
         id="path6" />
    <path
         d="m 1113,92.503906 c -29.6252,0.0045 -35.2175,0.620357 -45.7441,5.041016 -3.2033,1.345224 -3.5026,1.719966 -2.0352,2.548828 0.9462,0.53443 13.7712,1.394 28.5,1.9082 30.1197,1.05153 41.5186,2.03371 65.2793,5.63282 24.9485,3.77903 37.1086,6.17873 52.5,10.35742 7.7,2.0905 17.825,4.54431 22.5,5.45312 4.675,0.9088 12.775,2.52192 18,3.58399 12.3956,2.51964 30.8569,5.00845 44,5.93164 16.4436,1.15504 49.7637,1.14423 65.8535,-0.0215 23.1924,-1.68025 34.9107,-4.37282 55.1465,-12.66992 7.425,-3.0444 19.5516,-7.53791 26.9473,-9.98437 7.3957,-2.44646 14.3707,-5.1325 15.5,-5.96875 1.8909,-1.40017 1.5701,-1.47007 -4.041,-0.88672 -3.3513,0.3484 -10.1014,1.74438 -15,3.10156 -4.8988,1.35718 -15.6563,4.09958 -23.9063,6.09375 -8.25,1.99416 -21.975,5.6608 -30.5,8.14844 -23.17,6.76113 -32.85,8.15822 -56.793,8.19531 -28.506,0.0442 -66.6745,-4.25958 -92.6308,-10.44336 -7.7417,-1.84439 -18.3512,-4.33489 -23.5762,-5.53516 -5.225,-1.20028 -17.6,-4.56772 -27.5,-7.48242 -9.9,-2.91471 -21.6,-6.296306 -26,-7.515623 -4.4,-1.219317 -10.25,-2.954775 -13,-3.855468 -4.1586,-1.362043 -9.796,-1.636379 -33.5,-1.632813 z"
         style="fill:#ffdd55"
         id="path5" />
    <path
         d="m 626.74414,81.144531 c -20.50815,0.229271 -43.09746,1.412666 -57.24414,3.431641 -16.44699,2.347268 -23.65518,3.429888 -25.88672,3.888672 -7.19318,1.47885 -16.36794,3.879622 -17.86133,4.673828 -0.96187,0.51154 -11.53687,3.407269 -23.5,6.435547 -11.96312,3.028271 -24.90195,6.373971 -28.75195,7.433591 -3.85,1.05963 -13.975,3.30544 -22.5,4.99024 -17.48899,3.45635 -28.57346,6.50137 -29.57813,8.12695 -2.1612,3.49692 7.97623,3.72038 23.07813,0.50781 6.05,-1.287 17.075,-3.73462 24.5,-5.4375 23.90413,-5.48226 45.36831,-10.03561 50.5,-10.71484 2.75,-0.36399 11.75,-1.73395 20,-3.04297 8.25,-1.30901 21.3,-3.084553 29,-3.945313 7.7,-0.860759 19.625,-2.20329 26.5,-2.984375 6.875,-0.781085 21.51016,-1.942023 32.52148,-2.580078 18.32383,-1.06178 28.89057,-0.9733 70.22852,0.589844 7.2875,0.275568 13.25,0.119218 13.25,-0.347656 0,-1.544731 -5.02182,-3.16941 -9.79688,-3.169922 -2.58662,-2.78e-4 -7.06949,-0.900278 -9.96289,-2 -2.8934,-1.099723 -7.3934,-2.005766 -10,-2.011719 -2.6066,-0.006 -6.99023,-0.704331 -9.74023,-1.552734 -5.82072,-1.79575 -24.24771,-2.520286 -44.75586,-2.291016 z"
         style="fill:#ffdd55"
         id="path4" />
    <path
         d="m 146.60547,97.259766 c -6.448,-0.511821 -20.51647,1.028103 -31.10547,3.794924 -9.11964,2.38288 -40.652774,16.08039 -50.751953,22.04687 -9.025552,5.3322 -23.035428,19.66167 -28.955078,29.61328 C 27.388984,166.84292 22.896693,186 27.988281,186 c 0.360333,0 3.048667,-4.3875 5.972656,-9.75 8.202172,-15.04251 14.570106,-23.62048 24.421875,-32.89453 17.048253,-16.04851 33.038606,-24.82822 62.531248,-34.33203 28.04812,-9.038328 29.2598,-9.474762 29.1875,-10.537112 -0.0447,-0.656964 -1.34676,-1.055955 -3.49609,-1.226562 z"
         style="fill:#ffdd55"
         id="path3" />
</svg>
